HIERARCHY
ROOT Hips
{
	OFFSET 0.00000 0.00000 0.00000
	CHANNELS 6 Xposition Yposition Zposition Zrotation Yrotation Xrotation 
	JOINT LHipJoint
	{
		OFFSET 0 0 0
		CHANNELS 3 Zrotation Yrotation Xrotation
		JOINT LeftHip
		{
			OFFSET 1.28366 -1.58472 0.87544
			CHANNELS 3 Zrotation Yrotation Xrotation
			JOINT LeftKnee
			{
				OFFSET 2.18587 -6.00562 0.00000
				CHANNELS 3 Zrotation Yrotation Xrotation
				JOINT LeftAnkle
				{
					OFFSET 2.39085 -6.56880 0.00000
					CHANNELS 3 Zrotation Yrotation Xrotation
					JOINT LeftToe
					{
						OFFSET 0.12003 -0.32979 2.03101
						CHANNELS 3 Zrotation Yrotation Xrotation
						End Site
						{
							OFFSET 0.00000 -0.00000 1.04074
						}
					}
				}
			}
		}
	}
	JOINT RHipJoint
	{
		OFFSET 0 0 0
		CHANNELS 3 Zrotation Yrotation Xrotation
		JOINT RightHip
		{
			OFFSET -1.21795 -1.58472 0.87544
			CHANNELS 3 Zrotation Yrotation Xrotation
			JOINT RightKnee
			{
				OFFSET -2.22714 -6.11902 0.00000
				CHANNELS 3 Zrotation Yrotation Xrotation
				JOINT RightAnkle
				{
					OFFSET -2.40306 -6.60235 0.00000
					CHANNELS 3 Zrotation Yrotation Xrotation
					JOINT RightToe
					{
						OFFSET -0.15519 -0.42640 1.91430
						CHANNELS 3 Zrotation Yrotation Xrotation
						End Site
						{
							OFFSET -0.00000 -0.00000 0.99082
						}
					}
				}
			}
		}
	}
	JOINT lowerback
	{
		OFFSET 0 0 0
		CHANNELS 3 Zrotation Yrotation Xrotation
		JOINT Chest
		{
			OFFSET 0.01180 1.76430 -0.06387
			CHANNELS 3 Zrotation Yrotation Xrotation
			JOINT Chest2
			{
				OFFSET -0.00388 1.74651 0.09536
				CHANNELS 3 Zrotation Yrotation Xrotation
				JOINT lowerneck
				{
					OFFSET 0 0 0
					CHANNELS 3 Zrotation Yrotation Xrotation
					JOINT Neck
					{
						OFFSET 0.04111 1.46174 0.14397
						CHANNELS 3 Zrotation Yrotation Xrotation
						JOINT Head
						{
							OFFSET 0.00502 1.44580 -0.31711
							CHANNELS 3 Zrotation Yrotation Xrotation
							End Site
							{
								OFFSET -0.00395 1.49251 -0.12327
							}
						}
					}
				}
				JOINT LeftCollar
				{
					OFFSET 0 0 0
					CHANNELS 3 Zrotation Yrotation Xrotation
					JOINT LeftShoulder
					{
						OFFSET 2.70917 1.34870 -0.15417
CHANNELS 3 Zrotation Xrotation Yrotation
						JOINT LeftElbow
						{
OFFSET 0 -4.466100 -0.000000
CHANNELS 3 Zrotation Xrotation Yrotation
							JOINT LeftWrist
							{
OFFSET 0 -3.414140 0.000000
CHANNELS 3 Zrotation Xrotation Yrotation
								JOINT lhand
								{
									OFFSET 0 0 0
CHANNELS 3 Zrotation Xrotation Yrotation
									JOINT LFingers
									{
OFFSET 0 -0.328300 0.000000
CHANNELS 3 Zrotation Xrotation Yrotation
										End Site
										{
OFFSET 0 -0.264680 0.000000
										}
									}
								}
								JOINT LThumb
								{
OFFSET 0 0.000000 0.000000
CHANNELS 3 Zrotation Xrotation Yrotation
									End Site
									{
OFFSET 0 -0.268720 0.268720
									}
								}
							}
						}
					}
				}
				JOINT RightCollar
				{
					OFFSET 0 0 0
					CHANNELS 3 Zrotation Yrotation Xrotation
					JOINT RightShoulder
					{
						OFFSET -3.06316 1.13725 -0.10883
CHANNELS 3 Zrotation Xrotation Yrotation
						JOINT RightElbow
						{
OFFSET 0 -4.404310 0.000000
CHANNELS 3 Zrotation Xrotation Yrotation
							JOINT RightWrist
							{
OFFSET 0 -3.046880 0.000000
CHANNELS 3 Zrotation Xrotation Yrotation
								JOINT rhand
								{
									OFFSET 0 0 0
CHANNELS 3 Zrotation Xrotation Yrotation
									JOINT RFingers
									{
OFFSET 0 -0.500490 0.000000
CHANNELS 3 Zrotation Xrotation Yrotation
										End Site
										{
OFFSET 0 -0.403510 0.000000
										}
									}
								}
								JOINT RThumb
								{
OFFSET 0 0.000000 0.000000
CHANNELS 3 Zrotation Xrotation Yrotation
									End Site
									{
OFFSET 0 -0.409670 0.409670
									}
								}
							}
						}
					}
				}
			}
		}
	}
}
MOTION
Frames: 8
Frame Time: 0.008333333333333333
-9.866983 14.690196 16.057705 -170.724623 -18.649531 -177.860229 0.000000 0.000000 0.000000 9.850586 28.578583 -74.948623 28.144061 18.307083 114.492777 3.405441 -6.420196 37.494174 0.812805 5.752572 16.068312 0.000000 0.000000 0.000000 22.636340 -14.962200 -22.794759 -5.180978 -13.584708 41.598662 -1.848229 -1.645356 -26.334090 -0.114351 2.163046 -5.957027 -3.068281 2.670754 16.484669 0.741034 2.979121 -5.711691 1.692739 1.697325 -16.069640 10.121493 12.527134 -15.276066 2.928124 14.062823 10.784556 0.806010 7.404194 6.235578 0.000000 0.000000 0.000000 94.448894 -54.393525 28.683766 41.608077 -48.993982 19.644361 4.273240 -61.884986 -38.345343 0.000000 0.000000 0.000000 -7.125000 0.000000 0.000000 -38.449615 64.347124 19.360307 0.000000 0.000000 0.000000 -60.528797 17.172511 70.686901 -71.961318 -58.728889 -44.445214 -76.284082 -42.740464 -30.883453 0.000000 0.000000 0.000000 7.125000 0.000000 0.000000 -24.349383 -34.284420 -35.544243
-9.344947 14.668137 16.001920 -172.165818 -14.778140 -178.498494 0.000000 0.000000 0.000000 8.314367 53.119637 -83.933460 35.001965 13.372761 139.203251 4.040931 -16.894110 46.236562 0.794765 5.690473 15.889053 0.000000 0.000000 0.000000 23.031760 -9.650134 -20.413536 -5.417615 -13.839074 42.596833 -2.191367 -0.625780 -28.253262 -0.018503 -0.862697 2.371109 -5.824962 3.277800 17.402953 0.286435 3.058695 -5.206421 2.679754 1.974028 -16.200032 9.817414 11.989510 -15.425605 5.168085 12.977523 9.823971 1.374076 6.964729 5.755584 0.000000 0.000000 0.000000 97.970922 -51.256462 30.202414 42.309901 -49.380024 20.175584 12.622886 -53.642009 -40.506190 0.000000 0.000000 0.000000 -7.125000 0.000000 0.000000 -33.004595 68.497319 19.383946 0.000000 0.000000 0.000000 -59.297871 16.420386 68.232514 -63.195455 -57.102447 -37.012434 -66.804403 -34.112279 -29.466820 0.000000 0.000000 0.000000 7.125000 0.000000 0.000000 -19.347790 -22.669455 -26.434507
-8.892670 14.629759 15.904946 -172.478446 -12.853268 -179.091235 0.000000 0.000000 0.000000 13.392242 79.752176 -83.099990 37.859372 9.152115 153.726993 1.774572 -27.119920 45.760804 0.651108 5.161182 14.368908 0.000000 0.000000 0.000000 24.815791 -6.215152 -19.289002 -5.765326 -14.197015 44.032549 -2.388091 -1.402933 -29.765964 -0.221101 -3.026340 8.352268 -7.176983 3.048107 17.098750 0.395240 2.491212 -4.609108 3.774097 1.826026 -15.315643 8.923278 10.883754 -15.127688 7.118875 11.377053 9.566422 1.895631 6.245331 5.446513 0.000000 0.000000 0.000000 96.836122 -46.669204 21.787028 47.863549 -52.094372 24.478659 23.151679 -40.745344 -42.165642 0.000000 0.000000 0.000000 -7.125000 0.000000 0.000000 -23.556790 73.403991 16.078474 0.000000 0.000000 0.000000 -59.027874 12.290936 65.295682 -63.189367 -57.101211 -37.007266 -41.054148 -17.829180 -23.731001 0.000000 0.000000 0.000000 7.125000 0.000000 0.000000 -7.062928 -0.091963 -7.156665
-8.539128 14.462725 15.769453 -170.079326 -11.602719 -181.132269 0.000000 0.000000 0.000000 2.643886 71.165890 -94.931010 37.761108 9.343267 153.122054 1.303677 -25.423645 42.080669 0.360855 3.858607 10.679273 0.000000 0.000000 0.000000 28.735678 -6.527835 -18.270314 -6.198737 -14.618047 45.773839 -2.649215 -1.142515 -31.238229 -0.232432 -3.102127 8.563195 -4.692383 2.349360 17.630086 1.170505 2.228398 -4.176574 3.324290 1.515445 -14.979151 7.829051 9.252797 -15.316507 9.142880 8.841336 11.843552 2.528053 5.186976 6.079099 0.000000 0.000000 0.000000 93.552519 -41.262374 5.297949 60.506946 -56.426266 34.766899 26.762533 -31.350858 -35.359840 0.000000 0.000000 0.000000 -7.125000 0.000000 0.000000 -9.364026 68.233265 5.284450 0.000000 0.000000 0.000000 -59.850603 6.134986 61.170876 -69.841851 -58.404044 -42.636437 -13.483347 -7.527694 -13.794206 0.000000 0.000000 0.000000 7.125000 0.000000 0.000000 9.530670 15.932444 6.635868
-8.284299 14.280482 15.582380 -169.371499 -8.568467 -181.449097 0.000000 0.000000 0.000000 0.777405 43.650765 -92.104755 35.535758 12.745506 141.563697 1.340341 -12.680278 29.682175 0.570231 4.835278 13.439449 0.000000 0.000000 0.000000 30.214265 -7.228192 -18.790998 -6.873384 -15.223967 48.393125 -3.003246 0.273243 -32.796514 -0.101232 -2.049400 5.642367 -2.899653 2.397956 16.858467 1.603419 2.785006 -4.144450 2.645623 1.625065 -14.443859 5.625670 7.401637 -16.339392 10.646115 6.116932 15.241696 3.235340 4.034173 7.272818 0.000000 0.000000 0.000000 91.115844 -34.700527 -11.971238 86.514078 -59.919044 56.982716 25.925362 -24.118819 -19.142729 0.000000 0.000000 0.000000 -7.125000 0.000000 0.000000 -2.367396 51.073809 0.342445 0.000000 0.000000 0.000000 -63.094393 -0.230849 57.278137 -82.991860 -59.802582 -53.935268 -12.729297 -1.540030 -17.572577 0.000000 0.000000 0.000000 7.125000 0.000000 0.000000 10.037092 12.194865 7.807890
-8.097713 14.139465 15.322919 -170.248063 -4.218313 -180.172417 0.000000 0.000000 0.000000 0.060099 28.414364 -85.387363 31.969356 16.138015 127.333286 -0.032376 -6.240412 7.885437 0.288168 3.449191 9.532334 0.000000 0.000000 0.000000 29.792709 -7.017327 -20.013583 -7.567586 -15.791725 50.989569 -3.273986 1.171708 -34.013378 -0.001447 -0.205872 0.565581 -2.178801 2.753999 15.115964 1.533678 3.437130 -4.400257 2.025143 1.856813 -13.678862 3.972543 6.102061 -17.202184 10.750611 4.444517 17.472079 3.463089 3.244760 8.160283 0.000000 0.000000 0.000000 89.137519 -25.980010 -24.388891 120.179300 -56.235137 85.802333 18.248340 -9.828548 -5.183199 0.000000 0.000000 0.000000 -7.125000 0.000000 0.000000 -7.021376 35.366199 -1.676884 0.000000 0.000000 0.000000 -65.606706 -5.673158 50.219341 -106.137271 -58.979495 -73.926391 -17.455086 0.019670 -21.465836 0.000000 0.000000 0.000000 7.125000 0.000000 0.000000 7.116605 7.719935 6.144607
-7.973692 14.153127 14.964478 -170.468858 -0.710832 -178.662790 0.000000 0.000000 0.000000 -0.372677 21.226404 -78.046806 27.441002 18.614864 112.252237 -0.044590 -3.756704 1.657020 0.121631 2.247181 6.189381 0.000000 0.000000 0.000000 30.062258 -6.411621 -19.184871 -7.336036 -15.608282 50.133847 -3.290331 1.558446 -33.998612 -0.012629 0.724638 -1.991469 -0.283990 2.823419 13.823271 1.424293 3.876923 -4.917348 0.767834 1.889525 -13.369254 3.451904 5.430469 -17.214683 9.898152 3.902257 17.474163 3.197968 2.889958 8.179455 0.000000 0.000000 0.000000 84.193041 -14.704416 -29.360772 144.851267 -44.905934 105.077593 6.006647 -7.528933 -4.064445 0.000000 0.000000 0.000000 -7.125000 0.000000 0.000000 -16.763024 33.687214 -4.828026 0.000000 0.000000 0.000000 -64.415227 -6.614309 40.999727 -131.186634 -52.492603 -94.766863 -15.940304 -7.238982 -21.208031 0.000000 0.000000 0.000000 7.125000 0.000000 0.000000 8.063993 8.179527 6.904348
-7.905844 14.370221 14.477277 -170.825708 0.942565 -176.380093 0.000000 0.000000 0.000000 -2.239065 16.319009 -70.324328 22.623626 19.829526 97.692941 -0.063040 -6.339402 7.098149 0.014257 0.769682 2.115410 0.000000 0.000000 0.000000 30.243821 -5.647183 -17.130577 -6.242430 -14.658430 45.945521 -2.941466 1.579658 -32.087226 -0.000862 0.187259 -0.514522 1.620383 2.736853 11.646170 1.060970 4.240544 -5.739216 -0.711086 1.976087 -12.824015 2.527227 4.451306 -17.157058 9.809151 3.051606 15.796891 3.164126 2.391917 7.618102 0.000000 0.000000 0.000000 73.522214 -1.945456 -18.586836 156.458498 -34.671776 112.554317 -18.797934 -28.388145 -6.771606 0.000000 0.000000 0.000000 -7.125000 0.000000 0.000000 -35.960738 34.389110 -11.387603 0.000000 0.000000 0.000000 -58.392540 -0.052220 29.351644 -149.452592 -41.336222 -108.222392 -5.323207 -19.314446 -17.263170 0.000000 0.000000 0.000000 7.125000 0.000000 0.000000 14.879081 13.052028 11.533453
